<svg width="60" height="30" viewBox="0 0 60 30" fill="none" xmlns="http://www.w3.org/2000/svg">
<path fill-rule="evenodd" clip-rule="evenodd" d="M60 15C60 6.72263 53.3588 0 45.2186 0C44.4691 0 43.6989 0.0437957 42.9493 0.175182C36.6204 1.11679 32.3733 5.91241 30 9.59124C27.6267 5.91241 23.3796 1.11679 17.0507 0.175182C16.3012 0.0656934 15.5309 0 14.7814 0C6.62041 0 0 6.72263 0 15C0 23.2774 6.64122 30 14.7814 30C15.5309 30 16.3011 29.9562 17.0715 29.8248C23.4005 28.8613 27.6474 24.0656 30.0208 20.3869C32.3941 24.0656 36.6412 28.8613 42.9702 29.8248C43.7197 29.9344 44.4899 30 45.2603 30C53.3588 30 60 23.2774 60 15ZM16.3219 24.5693C15.8015 24.6569 15.281 24.6788 14.7605 24.6788C9.38922 24.6788 5.03808 20.3212 5.03808 15C5.03808 9.65693 9.41004 5.32116 14.7813 5.32116C15.3018 5.32116 15.8222 5.36496 16.3427 5.43065C22.3178 6.32846 25.9611 12.5255 27.2101 15C25.9403 17.4964 22.2761 23.6716 16.3219 24.5693ZM43.6572 5.43065C37.6821 6.32846 34.0179 12.5255 32.7897 15C34.0179 17.4744 37.6821 23.6716 43.6572 24.5693C44.1776 24.635 44.6981 24.6788 45.2186 24.6788C50.5691 24.6788 54.9409 20.343 54.9409 15C54.9409 9.67883 50.5898 5.32116 45.2186 5.32116C44.6981 5.32116 44.1776 5.36496 43.6572 5.43065ZM10.6121 13.3932H19.5517V16.277H10.6121V13.3932ZM49.3439 16.298H46.3291V19.3292H43.4399V16.298H40.4251V13.3932H43.4399V10.362H46.3291V13.3932H49.3439V16.298Z" fill="#00979C"/>
</svg>
