<svg width="18" height="18" viewBox="0 0 18 18" fill="none" xmlns="http://www.w3.org/2000/svg">
<path fill-rule="evenodd" clip-rule="evenodd" d="M11.8483 17.54C15.4194 16.3495 17.995 12.9817 18 9.01164C17.995 12.9816 15.421 16.3489 11.8507 17.5395C11.8499 17.5397 11.8491 17.5398 11.8483 17.54ZM9 0C4.02944 0 0 4.02944 0 9C0 13.9706 4.02944 18 9 18C9.99545 18 10.9532 17.8384 11.8483 17.54C11.3935 17.627 11.25 17.3463 11.25 17.1075V14.6378C11.25 13.7978 10.9552 13.2502 10.6327 12.9713C12.6368 12.7485 14.742 11.9872 14.742 8.5305C14.742 7.548 14.3932 6.74475 13.8158 6.11475C13.9087 5.88825 14.217 4.9725 13.7272 3.73275C13.7272 3.73275 12.9727 3.49125 11.2545 4.65525C10.5352 4.45575 9.765 4.356 9 4.35225C8.235 4.356 7.4655 4.45575 6.74775 4.65525C5.028 3.49125 4.272 3.73275 4.272 3.73275C3.783 4.97175 4.09125 5.8875 4.18425 6.11475C3.609 6.74475 3.25725 7.54725 3.25725 8.5305C3.25725 11.9782 5.35875 12.75 7.3575 12.9788C7.0995 13.203 6.86625 13.6005 6.786 14.1818C6.27225 14.412 4.9695 14.8095 4.167 13.434C4.167 13.434 3.6915 12.5692 2.78775 12.5062C2.78775 12.5062 1.90875 12.4942 2.7255 13.053C2.7255 13.053 3.31575 13.3298 3.72525 14.37C3.72525 14.37 4.2465 15.9765 6.75 15.432V17.1075C6.75 17.3445 6.6045 17.6235 6.15525 17.5402C2.5785 16.35 0 12.9765 0 9C0 4.02975 4.0305 0 9 0Z" fill="white"/>
</svg>
