<svg width="13" height="13" viewBox="0 0 13 13" fill="none" xmlns="http://www.w3.org/2000/svg">
<path d="M6.5 1.17163C8.2355 1.17163 8.44133 1.17813 9.12708 1.20954C10.8886 1.28971 11.7114 2.1255 11.7915 3.874C11.823 4.55921 11.8289 4.76504 11.8289 6.50054C11.8289 8.23658 11.8224 8.44188 11.7915 9.12708C11.7108 10.874 10.8902 11.7114 9.12708 11.7915C8.44133 11.823 8.23658 11.8295 6.5 11.8295C4.7645 11.8295 4.55867 11.823 3.87346 11.7915C2.10763 11.7108 1.28917 10.8713 1.209 9.12654C1.17758 8.44133 1.17108 8.23604 1.17108 6.5C1.17108 4.7645 1.17813 4.55921 1.209 3.87346C1.28971 2.1255 2.11033 1.28917 3.87346 1.209C4.55921 1.17813 4.7645 1.17163 6.5 1.17163ZM6.5 0C4.73471 0 4.51371 0.00758333 3.82038 0.039C1.45979 0.147333 0.147875 1.45708 0.0395417 3.81983C0.00758333 4.51371 0 4.73471 0 6.5C0 8.26529 0.00758333 8.48683 0.039 9.18017C0.147333 11.5408 1.45708 12.8527 3.81983 12.961C4.51371 12.9924 4.73471 13 6.5 13C8.26529 13 8.48683 12.9924 9.18017 12.961C11.5386 12.8527 12.8538 11.5429 12.9605 9.18017C12.9924 8.48683 13 8.26529 13 6.5C13 4.73471 12.9924 4.51371 12.961 3.82038C12.8548 1.46196 11.5435 0.147875 9.18071 0.0395417C8.48683 0.00758333 8.26529 0 6.5 0V0ZM6.5 3.16225C4.65671 3.16225 3.16225 4.65671 3.16225 6.5C3.16225 8.34329 4.65671 9.83829 6.5 9.83829C8.34329 9.83829 9.83775 8.34383 9.83775 6.5C9.83775 4.65671 8.34329 3.16225 6.5 3.16225ZM6.5 8.66667C5.30346 8.66667 4.33333 7.69708 4.33333 6.5C4.33333 5.30346 5.30346 4.33333 6.5 4.33333C7.69654 4.33333 8.66667 5.30346 8.66667 6.5C8.66667 7.69708 7.69654 8.66667 6.5 8.66667ZM9.96992 2.25063C9.53875 2.25063 9.18938 2.6 9.18938 3.03063C9.18938 3.46125 9.53875 3.81063 9.96992 3.81063C10.4005 3.81063 10.7494 3.46125 10.7494 3.03063C10.7494 2.6 10.4005 2.25063 9.96992 2.25063Z" fill="white"/>
</svg>
