<svg width="65" height="48" fill="none" xmlns="http://www.w3.org/2000/svg"><g clip-path="url(#prefix__clip0)" fill="#fff"><path d="M35.25 1.629c-3.419 3.433-6.716 6.708-9.969 10.027-1.606 1.638-2.783 3.514-2.646 5.942.106 1.875 1.045 3.38 2.112 4.857.644.891 1.243 1.86 1.623 2.884.433 1.165-.092 1.672-1.3 1.613-3.319-.16-6.578.021-9.378 2.12-.942.706-1.997 1.374-1.96 2.812.004.203-.298.438-.496.617-.295.268-.623.5-.939.744-2.007 1.54-2.223 4.069.952 5.876.198-.602.224-1.53.631-1.749 1.103-.59 2.354-1.125 3.574-1.195.744-.043 1.68.677 2.286 1.294 1.454 1.478 2.482 3.198 2.443 5.414-.01.606.38 1.22.614 1.911l.26-.977c.093.493.166.789.204 1.09.244 1.925-.234 2.383-2.072 1.934-9.326-2.285-16.18-9.888-17.819-18.967C1.17 15.685 8.98 3.356 21.722.552c4.531-.997 9.018-.645 13.527 1.077z"/><path d="M29.89 10.701c2.035-2.933 4.43-5.601 6.595-8.513l2.146 1.088-8.315 7.721-.427-.296zM37.9 7.509l2.516-3.018 1.062.667c-1.189.872-2.296 1.681-3.402 2.491-.06-.046-.118-.093-.177-.14zM53.542 42.878c-.514 1.158-5.189 4.644-8.17 4.642-9.309-.007-14.749-6.002-14.99-12.148-.283-7.153 6.871-13.543 14.27-12.788 1.458.148 2.733.508 4.368 1.107l-2.057 3.777c-.918-.401-2.312-.855-4.624-.604-3.679.401-6.837 4.252-6.783 8.256 0 4.503 4.651 7.909 8.427 7.909 1.84 0 4.42-1.208 5.447-2.165l4.112 2.014z"/><path d="M57.98 43.13c2.506-.14 4.41-1.347 4.41-2.922 0-1.502-2.015-2.979-5.14-3.525-4.26-.744-7.975-3.4-7.975-6.904 0-4.111 3.502-7.256 9.3-7.256 5.475 0 6.976 2.278 7.87 3.686l-3.494 2.52c-.708-.794-1.826-2.283-5.668-2.027-2.404.16-3.576 1.362-3.576 2.613 0 1.537 1.387 2.216 4.56 3.396 4.341 1.572 8.744 1.203 8.744 7.146 0 4.039-4.349 7.51-11.097 7.51-1.732 0-3.182-.348-3.929-.633 0 0 3.002-2.248 4.337-3.604h1.657z"/></g><defs><clipPath id="prefix__clip0"><path fill="#fff" d="M0 0h64.011v47.52H0z"/></clipPath></defs></svg>