<svg width="49" height="49" fill="none" xmlns="http://www.w3.org/2000/svg"><g clip-path="url(#prefix__clip0)" fill="#fff"><path d="M34.98 36.548v.087h.002c.021 1.595 1.233 2.836 2.789 3.003H45.488c1.666-.023 2.928-1.344 2.994-3.003h.006v-.847H34.98v.76zM37.983 9.615c-1.596.021-2.836 1.236-3.003 2.789v.316h13.51v-.105c-.023-1.696-1.391-2.979-3.087-3.003h-7.419v.003h-.001zM48.489 26.029H34.98v6.207h13.509v-6.207zM48.489 16.273H34.98v6.207h13.509v-6.207z"/><path d="M43.238 35.788h-3.003v12.857h3.003V35.788zM43.238.605h-3.003v12.116h3.003V.605zM14.641 48.086h-2.968v-8.701L.536 33.561l11.742-4.514L0 24.327l12.276-4.721L.357 15.025l12.318-5.798-.016-8.615 2.967-.007.019 10.502L7.91 14.75l12.636 4.856-12.278 4.721 12.278 4.72-12.814 4.927 6.909 3.614v10.498z"/></g><defs><clipPath id="prefix__clip0"><path fill="#fff" d="M0 0h48.49v48.646H0z"/></clipPath></defs></svg>