<svg width="149" height="25" viewBox="0 0 149 25" fill="none" xmlns="http://www.w3.org/2000/svg">
<path fill-rule="evenodd" clip-rule="evenodd" d="M149 0H59V25H149V0ZM77.6904 14.7915C77.9948 15.0295 78.147 15.3615 78.147 15.7876C78.147 16.1639 78.0059 16.4572 77.7236 16.6675C77.4469 16.8722 77.0679 16.9746 76.5864 16.9746C75.8338 16.9746 75.2887 16.8224 74.9512 16.5181C74.6191 16.2082 74.4531 15.7295 74.4531 15.082H71.5312C71.5312 15.8789 71.7305 16.5845 72.1289 17.1987C72.5329 17.8075 73.1305 18.2889 73.9219 18.6431C74.7188 18.9917 75.6069 19.166 76.5864 19.166C77.9754 19.166 79.0684 18.8644 79.8652 18.2612C80.6621 17.658 81.0605 16.828 81.0605 15.771C81.0605 14.4484 80.4076 13.4108 79.1016 12.6582C78.5648 12.3483 77.8786 12.0605 77.043 11.7949C76.2074 11.5238 75.6235 11.2637 75.2915 11.0146C74.9595 10.7601 74.7935 10.4779 74.7935 10.168C74.7935 9.8138 74.9429 9.52327 75.2417 9.29639C75.5461 9.06396 75.9583 8.94775 76.4785 8.94775C76.9932 8.94775 77.3999 9.08333 77.6987 9.35449C78.0031 9.62565 78.1553 10.0075 78.1553 10.5H81.0605C81.0605 9.764 80.8696 9.111 80.4878 8.54102C80.106 7.96549 79.5692 7.52279 78.8774 7.21289C78.1912 6.90299 77.4137 6.74805 76.5449 6.74805C75.654 6.74805 74.8516 6.89193 74.1377 7.17969C73.4238 7.46191 72.8704 7.86035 72.4775 8.375C72.0902 8.88411 71.8965 9.47347 71.8965 10.1431C71.8965 11.4878 72.6795 12.5448 74.2456 13.314C74.7271 13.5519 75.3468 13.7982 76.105 14.0527C76.8631 14.3073 77.3916 14.5535 77.6904 14.7915ZM91.135 9.16357H94.7625V6.91406H84.6604V9.16357H88.2215V19H91.135V9.16357ZM108.066 16.3354C108.503 15.4279 108.722 14.3848 108.722 13.2061V12.6499C108.716 11.4878 108.489 10.4585 108.041 9.56201C107.598 8.65999 106.976 7.96549 106.173 7.47852C105.371 6.99154 104.458 6.74805 103.434 6.74805C102.399 6.74805 101.475 6.9943 100.662 7.48682C99.8537 7.97933 99.2312 8.67936 98.794 9.58691C98.3624 10.4889 98.1465 11.5321 98.1465 12.7163V13.397C98.1687 14.5369 98.4011 15.5469 98.8438 16.4268C99.2921 17.3066 99.9146 17.9845 100.711 18.4604C101.508 18.9308 102.421 19.166 103.451 19.166C104.48 19.166 105.396 18.9225 106.198 18.4355C107.006 17.943 107.629 17.243 108.066 16.3354ZM105.152 9.96875C105.556 10.5885 105.758 11.4989 105.758 12.6997V13.2559C105.753 14.429 105.551 15.3283 105.152 15.9536C104.754 16.5789 104.187 16.8916 103.451 16.8916C102.676 16.8916 102.092 16.5734 101.699 15.937C101.306 15.3006 101.11 14.3903 101.11 13.2061L101.118 12.3179C101.201 10.1265 101.973 9.03076 103.434 9.03076C104.181 9.03076 104.754 9.34342 105.152 9.96875ZM115.858 14.7334H117.435L119.568 19H122.689V18.8755L120.166 14.0029C120.891 13.6598 121.422 13.2116 121.76 12.6582C122.103 12.1048 122.274 11.4076 122.274 10.5664C122.274 9.4043 121.87 8.50505 121.062 7.86865C120.254 7.23226 119.134 6.91406 117.701 6.91406H112.944V19H115.858V14.7334ZM117.701 12.4839H115.858V9.16357H117.701C118.248 9.16357 118.663 9.31299 118.946 9.61182C119.228 9.90511 119.369 10.3118 119.369 10.832C119.369 11.3522 119.228 11.759 118.946 12.0522C118.669 12.34 118.254 12.4839 117.701 12.4839ZM129.668 13.8784H134.25V11.7119H129.668V9.16357H135.096V6.91406H126.754V19H135.08V16.7588H129.668V13.8784Z" fill="white"/>
<path fill-rule="evenodd" clip-rule="evenodd" d="M51 12.5C51 5.60219 45.355 0 38.4358 0C37.7987 0 37.144 0.0364964 36.5069 0.145985C31.1273 0.930657 27.5173 4.92701 25.5 7.9927C23.4827 4.92701 19.8727 0.930657 14.4931 0.145985C13.856 0.0547445 13.2013 0 12.5642 0C5.62735 0 0 5.60219 0 12.5C0 19.3978 5.64504 25 12.5642 25C13.2013 25 13.856 24.9635 14.5108 24.854C19.8904 24.0511 23.5003 20.0547 25.5177 16.9891C27.535 20.0547 31.145 24.0511 36.5247 24.854C37.1617 24.9453 37.8164 25 38.4712 25C45.355 25 51 19.3978 51 12.5ZM13.8736 20.4744C13.4313 20.5474 12.9888 20.5657 12.5464 20.5657C7.98084 20.5657 4.28237 16.9343 4.28237 12.5C4.28237 8.04744 7.99853 4.4343 12.5641 4.4343C13.0065 4.4343 13.4489 4.4708 13.8913 4.52554C18.9701 5.27372 22.0669 10.4379 23.1286 12.5C22.0492 14.5803 18.9347 19.7263 13.8736 20.4744ZM37.1086 4.52554C32.0298 5.27372 28.9153 10.4379 27.8713 12.5C28.9153 14.562 32.0298 19.7263 37.1086 20.4744C37.5509 20.5292 37.9934 20.5657 38.4358 20.5657C42.9837 20.5657 46.6998 16.9525 46.6998 12.5C46.6998 8.06569 43.0013 4.4343 38.4358 4.4343C37.9934 4.4343 37.5509 4.4708 37.1086 4.52554ZM9.02027 11.161H16.6189V13.5642H9.02027V11.161ZM41.9423 13.5817H39.3798V16.1077H36.9239V13.5817H34.3614V11.161H36.9239V8.63499H39.3798V11.161H41.9423V13.5817Z" fill="white"/>
</svg>
