<svg width="17" height="17" viewBox="0 0 17 17" fill="none" xmlns="http://www.w3.org/2000/svg">
<path fill-rule="evenodd" clip-rule="evenodd" d="M11.2292 11.73C10.0371 12.8045 8.45892 13.4583 6.72917 13.4583C3.01537 13.4583 0 10.443 0 6.72917C0 3.01537 3.01537 0 6.72917 0C10.443 0 13.4583 3.01537 13.4583 6.72917C13.4583 8.45892 12.8045 10.0371 11.73 11.2292L17 16.4992L16.4992 17L11.2292 11.73ZM6.72917 0.708333C10.052 0.708333 12.75 3.40637 12.75 6.72917C12.75 10.052 10.052 12.75 6.72917 12.75C3.40637 12.75 0.708333 10.052 0.708333 6.72917C0.708333 3.40637 3.40637 0.708333 6.72917 0.708333Z" fill="white"/>
</svg>
