<svg width="113" height="15" viewBox="0 0 113 15" fill="none" xmlns="http://www.w3.org/2000/svg">
<path d="M0 14.7986L4.61084 0.203571H8.80292L13.6231 14.7986H9.64156L8.80292 11.9604H4.61084L3.77221 14.7986H0ZM6.70688 3.85179L5.2401 9.12321H8.17367L6.70688 3.85179ZM15.9286 0.203571H22.0062C26.1983 0.203571 27.6651 2.22964 27.6651 5.06786C27.6651 7.095 26.8275 8.51357 25.1503 9.32464L28.0849 14.595H23.6835L21.5874 10.1346H19.7008V14.7975H15.9286V0.2025V0.203571ZM23.894 5.06786C23.894 3.85179 23.473 3.04071 21.5874 3.04071H19.7008V7.095H21.5874C23.0542 7.2975 23.8929 6.68893 23.8929 5.06786H23.894ZM30.8102 0.203571H35.6316C41.2904 0.203571 43.176 2.83821 43.176 7.29643C43.176 10.7432 42.1291 14.595 35.6316 14.595H30.602V0.2025H30.8102V0.203571ZM34.5835 3.04071V11.5543H36.0503C39.1944 11.5543 39.4038 9.72964 39.4038 7.2975C39.4038 4.45929 39.1933 3.04071 35.8409 3.04071H34.5835ZM54.0738 0.203571H57.6378V9.72857C57.6378 13.9864 54.2843 15 51.5601 15C49.0453 15 45.6908 14.1889 45.6908 9.72964V0.203571H49.4641V9.12214C49.4641 11.5543 50.3016 12.1629 51.7684 12.1629C53.4457 12.1629 54.0749 11.3529 54.0749 9.12214V0.203571H54.0738ZM60.9912 11.7568H64.9728V3.24321H61.2006V0.2025H72.7277V3.24321H68.7461V11.7568H72.7277V14.7975H61.2006V11.7568H60.9901H60.9912ZM79.0169 14.595H75.453V0.2025H79.6451L84.4664 8.91857V0.203571H88.0292V14.7986H84.2559L79.2263 5.47393L79.0158 14.5961L79.0169 14.595ZM103.12 7.5C103.12 11.7568 101.443 15 96.6228 15C92.2213 15 90.3346 12.5679 90.3346 7.70357C90.3346 3.24321 92.0119 0 96.6228 0C101.024 0 103.12 1.82464 103.12 7.5ZM99.1376 7.5C99.1376 3.85179 98.9271 3.04071 96.6228 3.04071C94.7361 2.83714 94.3173 4.05429 94.3173 7.7025C94.3173 10.5407 94.5267 12.1618 96.6217 12.1618C98.9282 11.9593 99.1376 10.7432 99.1376 7.5ZM105.635 3.24321C105.635 1.41857 107.102 0 108.778 0C110.665 0 112.131 1.41857 112.131 3.24321C112.131 5.06786 110.665 6.48643 108.778 6.48643C107.102 6.28286 105.635 4.86536 105.635 3.24321ZM111.503 3.24321C111.503 1.82464 110.455 0.6075 108.778 0.6075C107.311 0.6075 106.263 1.62214 106.263 3.24321C106.263 4.86536 107.521 5.87893 108.778 5.87893C110.455 5.87893 111.503 4.86536 111.503 3.24321ZM107.102 1.21607H108.989C110.246 1.21607 110.665 1.82464 110.665 2.43214C110.665 2.83821 110.454 3.24321 110.037 3.64821L110.665 5.06786H109.407L108.989 3.85179H108.569V5.06786H107.311V1.21607H107.101H107.102ZM108.778 3.04071C109.198 3.04071 109.407 2.83714 109.407 2.43214C109.407 2.02714 109.197 2.02714 108.778 2.02714H108.359V3.04071H108.778Z" fill="white"/>
</svg>
