<svg width="62" height="39" fill="none" xmlns="http://www.w3.org/2000/svg"><path d="M47.494 9.925V1.882L46.416.812h-45V.807l-.071.004-.07.01-.065.016-.065.023-.065.031-.058.035-.056.041-.052.046-.046.053-.043.054-.034.06-.03.063-.024.066-.016.064-.01.068-.004.07v36.125l.003.07.01.068.016.065.024.066.03.063.033.06.042.054.047.052.052.047.055.041.058.034.064.03.065.023.066.017.069.01.07.003h45.37l.07-.003.069-.01.067-.017.066-.023.063-.03.06-.034.056-.041.053-.047.046-.052.04-.054.034-.06.03-.063.023-.066.016-.065.01-.068.005-.07v-1.083l1.8-1.787V11.711l-1.795-1.786zM10.001 36.76a1.738 1.738 0 01-1.744-1.733c0-.957.78-1.732 1.744-1.732s1.746.776 1.746 1.732c0 .957-.781 1.733-1.746 1.733zm35.427-24.483c.964 0 1.744.775 1.744 1.732s-.78 1.733-1.744 1.733a1.738 1.738 0 01-1.745-1.733c0-.958.782-1.732 1.745-1.732zm.123 22.421a1.738 1.738 0 01-1.745-1.732c0-.957.78-1.733 1.745-1.733.964 0 1.745.776 1.745 1.733a1.74 1.74 0 01-1.745 1.732z" fill="#fff"/><path d="M55.35.808H62M55.35 38.34H62M58.674.808V38.34" stroke="#fff" stroke-width=".585" stroke-miterlimit="10"/></svg>