<svg width="252" height="139" viewBox="0 0 252 139" fill="none" xmlns="http://www.w3.org/2000/svg">
<rect x="31.5" y="2" width="52" height="63" rx="8" fill="white" stroke="#889293" stroke-width="2"/>
<line x1="30.5" y1="11" x2="84.5" y2="11" stroke="#889293" stroke-width="2"/>
<line x1="39.5" y1="49" x2="44.5" y2="49" stroke="#889293" stroke-width="2"/>
<line x1="69.5" y1="49" x2="74.5" y2="49" stroke="#889293" stroke-width="2"/>
<path d="M57.5 49C55.8431 49 54.5 50.3431 54.5 52H60.5C60.5 50.3431 59.1569 49 57.5 49Z" fill="#889293"/>
<line x1="42" y1="65" x2="42" y2="139" stroke="#889293"/>
<line x1="73" y1="65" x2="73" y2="139" stroke="#889293"/>
<line x1="38.5" y1="138" x2="42.5" y2="138" stroke="#889293" stroke-width="2"/>
<line x1="69.5" y1="138" x2="73.5" y2="138" stroke="#889293" stroke-width="2"/>
<path d="M31.5 38C21.3333 38 1 43.6 1 66" stroke="#889293"/>
<path d="M83.5 38C93.1667 38 112.5 43.6 112.5 66" stroke="#889293"/>
<path d="M216.343 55.9505C223.396 52.0268 227.923 44.6826 227.923 31.8811C227.923 14.8259 214.313 1 197.525 1C180.736 1 167.126 14.8259 167.126 31.8811C167.126 44.0941 172.069 51.7509 179.671 55.9075V66.6224H193.235V60.2145H203.282V66.6224H216.343V55.9505Z" fill="white" stroke="#818C8D" stroke-width="2"/>
<line x1="180.154" y1="42.4615" x2="184.979" y2="42.4615" stroke="#889293" stroke-width="2"/>
<line x1="209.105" y1="42.4615" x2="213.93" y2="42.4615" stroke="#889293" stroke-width="2"/>
<path d="M197.524 42.4965C195.926 42.4965 194.629 43.7927 194.629 45.3916H200.42C200.42 43.7927 199.123 42.4965 197.524 42.4965Z" fill="#889293"/>
<line x1="186.444" y1="67.5874" x2="186.444" y2="139" stroke="#889293"/>
<line x1="209.605" y1="67.5874" x2="209.605" y2="139" stroke="#889293"/>
<line x1="183.049" y1="138" x2="186.909" y2="138" stroke="#889293" stroke-width="2"/>
<line x1="206.21" y1="138" x2="210.07" y2="138" stroke="#889293" stroke-width="2"/>
<path d="M168.091 38.6364C159.727 38.6364 143 44.0405 143 65.6573" stroke="#889293"/>
<path d="M226.958 39.6014C235 39.6014 251.084 45.0056 251.084 66.6224" stroke="#889293"/>
</svg>
