<svg width="26" height="26" viewBox="0 0 26 26" fill="none" xmlns="http://www.w3.org/2000/svg">
<path d="M26 13C26 16.3075 24.7648 19.3265 22.7306 21.6209C21.9919 18.0525 19.3312 15.1874 15.8791 14.1564C17.1355 13.1967 17.9461 11.6829 17.9461 9.9798C17.9461 7.07891 15.5945 4.72727 12.6936 4.72727C9.79271 4.72727 7.44108 7.07891 7.44108 9.9798C7.44108 11.7795 8.34615 13.3677 9.72596 14.3142C6.48481 15.4679 4.02258 18.2639 3.3408 21.7007C1.26411 19.3968 0 16.346 0 13C0 5.8203 5.8203 0 13 0C20.1797 0 26 5.8203 26 13Z" fill="white"/>
<path d="M13.0438 15.3199C17.415 15.3199 20.9985 18.6923 21.3345 22.9772C19.078 24.8642 16.1716 26 13 26C9.86686 26 6.9926 24.8916 4.74794 23.0456C5.05096 18.7282 8.64934 15.3199 13.0438 15.3199Z" fill="white"/>
<path d="M16.3704 9.9798C16.3704 12.0104 14.7242 13.6566 12.6936 13.6566C10.663 13.6566 9.01684 12.0104 9.01684 9.9798C9.01684 7.94917 10.663 6.30303 12.6936 6.30303C14.7242 6.30303 16.3704 7.94917 16.3704 9.9798Z" fill="white"/>
</svg>
